<svg xmlns="http://www.w3.org/2000/svg" viewBox="0 0 32 32">
  <path fill="currentColor" d="M2.29,30.11C1.45,30.11 1.03,29.62 1.03,28.66 1.03,28.2 1.34,27.69 1.96,27.14 3.16,26.02 4.07,24.6 4.68,22.89 5.28,21.17 5.57,19.23 5.55,17.05L5.52,14.48C5.49,13.78 5.7,13.24 6.14,12.87 6.58,12.49 7.24,12.31 8.12,12.31L24.21,12.31C25.15,12.31 25.84,12.51 26.27,12.93 26.7,13.35 26.89,14.02 26.85,14.94L26.85,18.93C26.85,19.86 26.64,20.53 26.22,20.96 25.8,21.39 25.13,21.58 24.21,21.54L7.53,21.54C7.33,23.45 6.62,25.37 5.38,27.31 4.2,29.17 3.16,30.11 2.29,30.11z M10.36,30.5C9.44,30.5 8.75,30.3 8.3,29.89 7.85,29.49 7.63,28.86 7.63,28L7.63,25.76C7.63,24,8.54,23.15,10.36,23.22L24.7,23.22C25.67,23.22 26.39,23.43 26.86,23.84 27.34,24.26 27.57,24.93 27.57,25.86L27.57,27.97C27.57,29.72,26.62,30.57,24.7,30.5z M23.75,28.33C24.38,28.33,24.7,28.01,24.7,27.37L24.7,26.35C24.7,25.73,24.38,25.42,23.75,25.39L11.29,25.39C11,25.39 10.77,25.48 10.61,25.64 10.45,25.81 10.35,26.04 10.33,26.35L10.33,27.37C10.33,27.97,10.65,28.28,11.29,28.33z M23.32,19.43C23.65,19.43 23.9,19.33 24.08,19.15 24.25,18.96 24.35,18.7 24.37,18.37L24.37,17.84 7.86,17.84 7.79,19.43z M24.37,15.93L24.37,15.47C24.37,15.14 24.28,14.89 24.09,14.71 23.91,14.54 23.65,14.44 23.32,14.42L8.95,14.42C8.44,14.42 8.14,14.55 8.05,14.81 8.05,14.83 8.03,14.91 7.99,15.04 7.95,15.17 7.91,15.47 7.89,15.93z M9.77,10.72C8.98,10.72,8.58,10.36,8.58,9.64L8.71,8.61 22.16,8.61 22.46,8.81C22.68,8.94 22.79,9.22 22.79,9.64 22.79,10.36 22.37,10.72 21.54,10.72z M2.22,12.24C1.8,12.24 1.49,12.12 1.3,11.88 1.1,11.64 1,11.26 1,10.76 1,10.4 1.1,10.13 1.3,9.93 1.49,9.76 2.23,9.45 3.51,9.01 7.86,7.49 11.45,5.24 14.29,2.25 14.77,1.75 15.34,1.49 16,1.49 16.51,1.49 16.88,1.56 17.12,1.71 17.36,1.85 17.48,2.09 17.48,2.42 17.48,2.57 17.41,2.73 17.25,2.91 18.62,4.05 20.53,5.24 22.99,6.47 25.43,7.7 27.65,8.53 29.65,8.94 30.09,9.05 30.42,9.22 30.65,9.44 30.88,9.66 31,9.92 31,10.23 31,10.67 30.85,11.05 30.54,11.38 30.21,11.73 29.9,11.91 29.62,11.91 28.1,11.91 25.62,10.89 22.16,8.84 20.56,7.9 19.26,7.11 18.27,6.47 17.29,5.83 16.41,5.2 15.64,4.56 13.77,6.21 11.7,7.7 9.44,9.04 5.88,11.17 3.47,12.24 2.22,12.24z"/>
</svg>
